0
SECTION
2
HEADER
9
$INSUNITS
70
4
9
$ACADVER
1
AC1014
9
$HANDSEED
5
FFFF
0
ENDSEC
0
SECTION
2
TABLES
0
TABLE
2
VPORT
5
8
100
AcDbSymbolTable
0
ENDTAB
0
TABLE
2
LTYPE
5
5
100
AcDbSymbolTable
0
LTYPE
5
14
100
AcDbSymbolTableRecord
100
AcDbLinetypeTableRecord
2
BYBLOCK
70
0
0
LTYPE
5
15
100
AcDbSymbolTableRecord
100
AcDbLinetypeTableRecord
2
BYLAYER
70
0
0
LTYPE
5
16
100
AcDbSymbolTableRecord
100
AcDbLinetypeTableRecord
2
DASHED
70
0
3
Dashed __ __ __ __ __ __ __ __ __ __ __ __ __ _
72
65
73
2
40
0.75
49
0.5
74
0
49
-0.25
74
0
0
ENDTAB
0
TABLE
2
LAYER
5
2
100
AcDbSymbolTable
70
2
0
LAYER
5
50
100
AcDbSymbolTableRecord
100
AcDbLayerTableRecord
2
0
70
0
62
7
6
CONTINUOUS
0
ENDTAB
0
TABLE
2
STYLE
5
3
100
AcDbSymbolTable
70
1
0
STYLE
5
11
100
AcDbSymbolTableRecord
100
AcDbTextStyleTableRecord
2
STANDARD
70
0
0
ENDTAB
0
TABLE
2
VIEW
5
6
100
AcDbSymbolTable
70
0
0
ENDTAB
0
TABLE
2
UCS
5
7
100
AcDbSymbolTable
70
0
0
ENDTAB
0
TABLE
2
APPID
5
9
100
AcDbSymbolTable
70
2
0
APPID
5
12
100
AcDbSymbolTableRecord
100
AcDbRegAppTableRecord
2
ACAD
70
0
0
ENDTAB
0
TABLE
2
DIMSTYLE
5
A
100
AcDbSymbolTable
70
1
0
ENDTAB
0
TABLE
2
BLOCK_RECORD
5
1
100
AcDbSymbolTable
70
1
0
BLOCK_RECORD
5
1F
100
AcDbSymbolTableRecord
100
AcDbBlockTableRecord
2
*MODEL_SPACE
0
BLOCK_RECORD
5
1B
100
AcDbSymbolTableRecord
100
AcDbBlockTableRecord
2
*PAPER_SPACE
0
ENDTAB
0
ENDSEC
0
SECTION
2
BLOCKS
0
BLOCK
5
20
100
AcDbEntity
100
AcDbBlockBegin
2
*MODEL_SPACE
0
ENDBLK
5
21
100
AcDbEntity
100
AcDbBlockEnd
0
BLOCK
5
1C
100
AcDbEntity
100
AcDbBlockBegin
2
*PAPER_SPACE
0
ENDBLK
5
1D
100
AcDbEntity
100
AcDbBlockEnd
0
ENDSEC
0
SECTION
2
ENTITIES
0
LWPOLYLINE
5
100
100
AcDbEntity
8
0
100
AcDbPolyline
90
101
70
1
43
0.0
10
-113.00000190734863
20
-58.15000057220459
10
-113.00000190734863
20
-84.000005722045898
10
-112.97002792358398
20
-84.915647506713867
10
-112.88022994995117
20
-85.827360153198242
10
-112.73099899291992
20
-86.73126220703125
10
-112.52296447753906
20
-87.623472213745117
10
-112.25703239440918
20
-88.500156402587891
10
-111.93431854248047
20
-89.357566833496094
10
-111.55621528625488
20
-90.192041397094727
10
-111.12436294555664
20
-91.000003814697266
10
-110.64058303833008
20
-91.777982711791992
10
-110.10695457458496
20
-92.522659301757812
10
-109.5257568359375
20
-93.23084831237793
10
-108.89949798583984
20
-93.899497985839844
10
-108.23084831237793
20
-94.5257568359375
10
-107.52265930175781
20
-95.106945037841797
10
-106.77798271179199
20
-95.640573501586914
10
-106.00000381469727
20
-96.124353408813477
10
-105.19204139709473
20
-96.556215286254883
10
-104.35756683349609
20
-96.934309005737305
10
-103.50015640258789
20
-97.257022857666016
10
-102.62347221374512
20
-97.522954940795898
10
-101.73126220703125
20
-97.730998992919922
10
-100.82736015319824
20
-97.880229949951172
10
-99.915647506713867
20
-97.970027923583984
10
-99.000005722045898
20
-98.000001907348633
10
-98.248739242553711
20
-98.000001907348633
10
-75.740790367126465
20
-98.000001907348633
10
-64.700007438659668
20
-98.000001907348633
10
-29.751269817352295
20
-98.000001907348633
10
-10.000001192092896
20
-98.000001907348633
10
-9.3393653631210327
20
-97.972679138183594
10
-8.683243989944458
20
-97.890892028808594
10
-8.0361169576644897
20
-97.755203247070312
10
-7.4024051427841187
20
-97.566537857055664
10
-6.7864376306533813
20
-97.326192855834961
10
-6.1924213171005249
20
-97.035789489746094
10
-5.6244152784347534
20
-96.697330474853516
10
-5.0862991809844971
20
-96.31312370300293
10
-4.5817476511001587
20
-95.885791778564453
10
-4.1142088174819946
20
-95.418252944946289
10
-3.6868771910667419
20
-94.913702011108398
10
-3.3026692271232605
20
-94.375591278076172
10
-2.9642099142074585
20
-93.807582855224609
10
-2.6738139986991882
20
-93.213567733764648
10
-2.4334621429443359
20
-92.597599029541016
10
-2.2447983920574188
20
-91.963882446289062
10
-2.1091103553771973
20
-91.316757202148438
10
-2.0273254811763763
20
-90.660638809204102
10
-2.0000003278255463
20
-90
10
-2.0000003278255463
20
-9.9999982118606567
10
-2.0273254811763763
20
-9.3393659591674805
10
-2.1091103553771973
20
-8.6832422018051147
10
-2.2447983920574188
20
-8.0361145734786987
10
-2.4334621429443359
20
-7.4024051427841187
10
-2.6738139986991882
20
-6.7864364385604858
10
-2.9642099142074585
20
-6.1924195289611816
10
-3.3026692271232605
20
-5.6244134902954102
10
-3.6868771910667419
20
-5.0862991809844971
10
-4.1142088174819946
20
-4.5817455649375916
10
-4.5817476511001587
20
-4.1142067313194275
10
-5.0862991809844971
20
-3.6868751049041748
10
-5.6244152784347534
20
-3.3026674389839172
10
-6.1924213171005249
20
-2.9642099142074585
10
-6.7864376306533813
20
-2.673812210559845
10
-7.4024051427841187
20
-2.4334602057933807
10
-8.0361169576644897
20
-2.2447966039180756
10
-8.683243989944458
20
-2.1091103553771973
10
-9.3393653631210327
20
-2.0273216068744659
10
-10.000001192092896
20
-2.0000003278255463
10
-29.751269817352295
20
-2.0000003278255463
10
-64.700007438659668
20
-2.0000003278255463
10
-75.740790367126465
20
-2.0000003278255463
10
-98.248739242553711
20
-2.0000003278255463
10
-99.000005722045898
20
-2.0000003278255463
10
-99.915647506713867
20
-2.0299740135669708
10
-100.82736015319824
20
-2.1197722852230072
10
-101.73126220703125
20
-2.269003689289093
10
-102.62347221374512
20
-2.4770386517047882
10
-103.50015640258789
20
-2.7429759502410889
10
-104.35756683349609
20
-3.065686821937561
10
-105.19204139709473
20
-3.4437814354896545
10
-106.00000381469727
20
-3.8756430149078369
10
-106.77798271179199
20
-4.3594241142272949
10
-107.52265930175781
20
-4.8930534720420837
10
-108.23084831237793
20
-5.4742431640625
10
-108.89949798583984
20
-6.1005061864852905
10
-109.5257568359375
20
-6.7691582441329956
10
-110.10695457458496
20
-7.477339506149292
10
-110.64058303833008
20
-8.2220172882080078
10
-111.12436294555664
20
-9.0000003576278687
10
-111.55621528625488
20
-9.8079597949981689
10
-111.93431854248047
20
-10.642431974411011
10
-112.25703239440918
20
-11.499848365783691
10
-112.52296447753906
20
-12.376531362533569
10
-112.73099899291992
20
-13.268735408782959
10
-112.88022994995117
20
-14.172632694244385
10
-112.97002792358398
20
-15.084356069564819
10
-113.00000190734863
20
-15.999999046325684
10
-113.00000190734863
20
-26.021182537078857
10
-113.00000190734863
20
-50
0
LWPOLYLINE
5
101
100
AcDbEntity
8
0
100
AcDbPolyline
90
99
70
1
43
0.0
10
-109.8365592956543
20
-78.346748352050781
10
-109.74593162536621
20
-78.11521053314209
10
-109.63644981384277
20
-77.891974449157715
10
-109.50885772705078
20
-77.67857551574707
10
-109.36403274536133
20
-77.476472854614258
10
-109.20296669006348
20
-77.287049293518066
10
-109.02677536010742
20
-77.111620903015137
10
-108.83665084838867
20
-76.951384544372559
10
-108.63391876220703
20
-76.807441711425781
10
-108.41996192932129
20
-76.680779457092285
10
-108.19624900817871
20
-76.572275161743164
10
-107.96431541442871
20
-76.482658386230469
10
-107.72577285766602
20
-76.412568092346191
10
-83.094053268432617
20
-70.271186828613281
10
-82.857818603515625
20
-70.222282409667969
10
-82.618417739868164
20
-70.192523002624512
10
-82.377405166625977
20
-70.182089805603027
10
-82.136335372924805
20
-70.191054344177246
10
-81.896753311157227
20
-70.219359397888184
10
-81.660223007202148
20
-70.266833305358887
10
-81.428289413452148
20
-70.333147048950195
10
-81.202421188354492
20
-70.417885780334473
10
-80.984086990356445
20
-70.520491600036621
10
-80.774707794189453
20
-70.640320777893066
10
-80.575628280639648
20
-70.776581764221191
10
-80.388145446777344
20
-70.928397178649902
10
-79.336533546447754
20
-71.807479858398438
10
-78.242950439453125
20
-72.633781433105469
10
-77.11005687713623
20
-73.405299186706543
10
-75.94057559967041
20
-74.12015438079834
10
-74.737358093261719
20
-74.776625633239746
10
-73.503303527832031
20
-75.373129844665527
10
-72.241411209106445
20
-75.908203125
10
-70.954718589782715
20
-76.380572319030762
10
-69.646353721618652
20
-76.789078712463379
10
-68.319487571716309
20
-77.132744789123535
10
-68.077101707458496
20
-77.200021743774414
10
-67.84121036529541
20
-77.287378311157227
10
-67.613472938537598
20
-77.394180297851562
10
-67.395472526550293
20
-77.519683837890625
10
-67.188758850097656
20
-77.663016319274902
10
-66.994776725769043
20
-77.82315731048584
10
-66.814889907836914
20
-77.998995780944824
10
-66.65036678314209
20
-78.189272880554199
10
-66.502366065979004
20
-78.392672538757324
10
-66.371927261352539
20
-78.607749938964844
10
-66.259956359863281
20
-78.833003044128418
10
-66.167259216308594
20
-79.06684398651123
10
-66.094470024108887
20
-79.30762767791748
10
-66.042108535766602
20
-79.553656578063965
10
-66.010551452636719
20
-79.803214073181152
10
-65.999999046325684
20
-80.054540634155273
10
-65.999999046325684
20
-84.748735427856445
10
-65.999999046325684
20
-91.999998092651367
10
-66.011414527893066
20
-92.261466979980469
10
-66.04557991027832
20
-92.520942687988281
10
-66.102228164672852
20
-92.776460647583008
10
-66.180925369262695
20
-93.026065826416016
10
-66.281085014343262
20
-93.267850875854492
10
-66.401925086975098
20
-93.500003814697266
10
-66.542549133300781
20
-93.720731735229492
10
-66.701865196228027
20
-93.928365707397461
10
-66.878676414489746
20
-94.121313095092773
10
-67.071642875671387
20
-94.298133850097656
10
-67.279267311096191
20
-94.457464218139648
10
-67.5
20
-94.598073959350586
10
-67.732148170471191
20
-94.718923568725586
10
-67.97393798828125
20
-94.81907844543457
10
-68.223543167114258
20
-94.897775650024414
10
-68.479056358337402
20
-94.954423904418945
10
-68.738532066345215
20
-94.988584518432617
10
-69.000000953674316
20
-95
10
-75.740790367126465
20
-95
10
-98.248739242553711
20
-95
10
-99.000005722045898
20
-95
10
-99.863052368164062
20
-94.966096878051758
10
-100.72077751159668
20
-94.864568710327148
10
-101.56790733337402
20
-94.696073532104492
10
-102.39919662475586
20
-94.46162223815918
10
-103.20952415466309
20
-94.162673950195312
10
-103.9939022064209
20
-93.801069259643555
10
-104.74749565124512
20
-93.379039764404297
10
-105.46565055847168
20
-92.899188995361328
10
-106.1439323425293
20
-92.364463806152344
10
-106.77817344665527
20
-91.778173446655273
10
-107.36446380615234
20
-91.143932342529297
10
-107.89918899536133
20
-90.465641021728516
10
-108.37904930114746
20
-89.747486114501953
10
-108.80106925964355
20
-88.993902206420898
10
-109.16268348693848
20
-88.209524154663086
10
-109.46162223815918
20
-87.399187088012695
10
-109.69607353210449
20
-86.567897796630859
10
-109.86457824707031
20
-85.72077751159668
10
-109.96608734130859
20
-84.863042831420898
10
-110
20
-84.000005722045898
10
-110
20
-79.32344913482666
10
-109.98969078063965
20
-79.075026512145996
10
-109.95885848999023
20
-78.828310966491699
10
-109.90769386291504
20
-78.584990501403809
0
LWPOLYLINE
5
102
100
AcDbEntity
8
0
100
AcDbPolyline
90
99
70
1
43
0.0
10
-109.90769386291504
20
-21.4150071144104
10
-109.95885848999023
20
-21.171689033508301
10
-109.98969078063965
20
-20.924971103668213
10
-110
20
-20.676546096801758
10
-110
20
-15.999999046325684
10
-109.96608734130859
20
-15.136950016021729
10
-109.86457824707031
20
-14.279221296310425
10
-109.69607353210449
20
-13.432101011276245
10
-109.46162223815918
20
-12.600812911987305
10
-109.16268348693848
20
-11.790480613708496
10
-108.80106925964355
20
-11.006101369857788
10
-108.37904930114746
20
-10.252517461776733
10
-107.89918899536133
20
-9.5343631505966187
10
-107.36446380615234
20
-8.8560694456100464
10
-106.77817344665527
20
-8.2218235731124878
10
-106.1439323425293
20
-7.6355338096618652
10
-105.46565055847168
20
-7.1008127927780151
10
-104.74749565124512
20
-6.6209584474563599
10
-103.9939022064209
20
-6.1989277601242065
10
-103.20952415466309
20
-5.8373254537582397
10
-102.39919662475586
20
-5.5383777618408203
10
-101.56790733337402
20
-5.3039306402206421
10
-100.72077751159668
20
-5.1354283094406128
10
-99.863052368164062
20
-5.0339102745056152
10
-99.000005722045898
20
-4.9999991059303284
10
-98.248739242553711
20
-4.9999991059303284
10
-75.740790367126465
20
-4.9999991059303284
10
-69.000000953674316
20
-4.9999991059303284
10
-68.738532066345215
20
-5.0114130973815918
10
-68.479056358337402
20
-5.0455743074417114
10
-68.223543167114258
20
-5.1022213697433472
10
-67.97393798828125
20
-5.1809215545654297
10
-67.732148170471191
20
-5.2810758352279663
10
-67.5
20
-5.4019242525100708
10
-67.279267311096191
20
-5.5425429344177246
10
-67.071642875671387
20
-5.7018661499023438
10
-66.878676414489746
20
-5.8786791563034058
10
-66.701865196228027
20
-6.0716348886489868
10
-66.542549133300781
20
-6.2792712450027466
10
-66.401925086975098
20
-6.4999979734420776
10
-66.281085014343262
20
-6.732143759727478
10
-66.180925369262695
20
-6.9739371538162231
10
-66.102228164672852
20
-7.2235429286956787
10
-66.04557991027832
20
-7.4790531396865845
10
-66.011414527893066
20
-7.7385306358337402
10
-65.999999046325684
20
-7.9999977350234985
10
-65.999999046325684
20
-15.251271724700928
10
-65.999999046325684
20
-19.945458173751831
10
-66.010551452636719
20
-20.196781158447266
10
-66.042108535766602
20
-20.446338653564453
10
-66.094470024108887
20
-20.692374706268311
10
-66.167259216308594
20
-20.933158397674561
10
-66.259956359863281
20
-21.166999340057373
10
-66.371927261352539
20
-21.392247676849365
10
-66.502366065979004
20
-21.607332229614258
10
-66.65036678314209
20
-21.810727119445801
10
-66.814889907836914
20
-22.001008987426758
10
-66.994776725769043
20
-22.176840305328369
10
-67.188758850097656
20
-22.336983680725098
10
-67.395472526550293
20
-22.480313777923584
10
-67.613472938537598
20
-22.605819702148438
10
-67.84121036529541
20
-22.712626457214355
10
-68.077101707458496
20
-22.799975872039795
10
-68.319487571716309
20
-22.867255210876465
10
-69.646353721618652
20
-23.210916519165039
10
-70.954718589782715
20
-23.619427680969238
10
-72.241411209106445
20
-24.091792106628418
10
-73.503303527832031
20
-24.626870155334473
10
-74.737358093261719
20
-25.223369598388672
10
-75.94057559967041
20
-25.879840850830078
10
-77.11005687713623
20
-26.594700813293457
10
-78.242950439453125
20
-27.366213798522949
10
-79.336533546447754
20
-28.19251537322998
10
-80.388145446777344
20
-29.071605205535889
10
-80.575628280639648
20
-29.223418235778809
10
-80.774707794189453
20
-29.359679222106934
10
-80.984086990356445
20
-29.479501247406006
10
-81.202421188354492
20
-29.582116603851318
10
-81.428289413452148
20
-29.666855335235596
10
-81.660223007202148
20
-29.733169078826904
10
-81.896753311157227
20
-29.780635833740234
10
-82.136335372924805
20
-29.808945655822754
10
-82.377405166625977
20
-29.817912578582764
10
-82.618417739868164
20
-29.807479381561279
10
-82.857818603515625
20
-29.77771520614624
10
-83.094053268432617
20
-29.728810787200928
10
-107.72577285766602
20
-23.5874342918396
10
-107.96431541442871
20
-23.517336845397949
10
-108.19624900817871
20
-23.427727222442627
10
-108.41996192932129
20
-23.319218158721924
10
-108.63391876220703
20
-23.192558288574219
10
-108.83665084838867
20
-23.048615455627441
10
-109.02677536010742
20
-22.888381481170654
10
-109.20296669006348
20
-22.712950706481934
10
-109.36403274536133
20
-22.523531913757324
10
-109.50885772705078
20
-22.321426868438721
10
-109.63644981384277
20
-22.108025550842285
10
-109.74593162536621
20
-21.88478946685791
10
-109.8365592956543
20
-21.653249263763428
0
LWPOLYLINE
5
103
100
AcDbEntity
8
0
100
AcDbPolyline
90
112
70
1
43
0.0
10
-61.988930702209473
20
-21.727206707000732
10
-62.197756767272949
20
-21.584231853485107
10
-62.393779754638672
20
-21.424160003662109
10
-62.575621604919434
20
-21.248140335083008
10
-62.741975784301758
20
-21.057419776916504
10
-62.891664505004883
20
-20.853354930877686
10
-63.023619651794434
20
-20.637400150299072
10
-63.136911392211914
20
-20.411093235015869
10
-63.230719566345215
20
-20.176043510437012
10
-63.304381370544434
20
-19.933919906616211
10
-63.357377052307129
20
-19.686453342437744
10
-63.389325141906738
20
-19.435398578643799
10
-63.400001525878906
20
-19.182544946670532
10
-63.400001525878906
20
-15.251271724700928
10
-63.400001525878906
20
-7.9999977350234985
10
-63.389754295349121
20
-7.7522623538970947
10
-63.359084129333496
20
-7.5062143802642822
10
-63.308200836181641
20
-7.2635412216186523
10
-63.237452507019043
20
-7.0259016752243042
10
-63.147320747375488
20
-6.7949146032333374
10
-63.038420677185059
20
-6.5721571445465088
10
-62.911505699157715
20
-6.3591563701629639
10
-62.767424583435059
20
-6.1573612689971924
10
-62.607169151306152
20
-5.9681534767150879
10
-62.431845664978027
20
-5.7928270101547241
10
-62.242641448974609
20
-5.6325793266296387
10
-62.040843963623047
20
-5.4884999990463257
10
-61.827845573425293
20
-5.3615796566009521
10
-61.605086326599121
20
-5.2526777982711792
10
-61.374101638793945
20
-5.1625484228134155
10
-61.136455535888672
20
-5.0917977094650269
10
-60.893783569335938
20
-5.0409138202667236
10
-60.647740364074707
20
-5.0102472305297852
10
-60.400004386901855
20
-4.9999991059303284
10
-34.000000953674316
20
-4.9999991059303284
10
-33.103237152099609
20
-5.0335526466369629
10
-32.211494445800781
20
-5.1340276002883911
10
-31.329751014709473
20
-5.300864577293396
10
-30.462939739227295
20
-5.5331254005432129
10
-29.615907669067383
20
-5.8295130729675293
10
-28.793396949768066
20
-6.1883741617202759
10
-27.999999523162842
20
-6.6076928377151489
10
-27.240159511566162
20
-7.0851337909698486
10
-26.518123149871826
20
-7.6180213689804077
10
-25.837926864624023
20
-8.2033759355545044
10
-25.203378200531006
20
-8.837926983833313
10
-24.618022441864014
20
-9.5181208848953247
10
-24.085135459899902
20
-10.240160226821899
10
-23.60769510269165
20
-11.000000238418579
10
-23.188374042510986
20
-11.793394088745117
10
-22.829515933990479
20
-12.61590838432312
10
-22.533128261566162
20
-13.462938070297241
10
-22.300865650177002
20
-14.329746961593628
10
-22.134032249450684
20
-15.211492776870728
10
-22.033555507659912
20
-16.103237867355347
10
-22.000000476837158
20
-17.000000476837158
10
-22.000000476837158
20
-26.021182537078857
10
-22.000000476837158
20
-32.000000476837158
10
-22.011415958404541
20
-32.261466979980469
10
-22.045578956604004
20
-32.520942687988281
10
-22.102222442626953
20
-32.776455879211426
10
-22.180924415588379
20
-33.026058673858643
10
-22.281076908111572
20
-33.267853260040283
10
-22.401924133300781
20
-33.500001430511475
10
-22.542543411254883
20
-33.720729351043701
10
-22.701866626739502
20
-33.92836332321167
10
-22.878680229187012
20
-34.121320247650146
10
-23.071639537811279
20
-34.298133850097656
10
-23.279271125793457
20
-34.457454681396484
10
-23.500001430511475
20
-34.598076343536377
10
-23.732144832611084
20
-34.718921184539795
10
-23.973939418792725
20
-34.819076061248779
10
-24.223544597625732
20
-34.897778034210205
10
-24.479055404663086
20
-34.954421520233154
10
-24.738533496856689
20
-34.988582134246826
10
-25
20
-35
10
-29.751269817352295
20
-35
10
-36.934578418731689
20
-35
10
-37.192807197570801
20
-34.988865852355957
10
-37.449119091033936
20
-34.955544471740723
10
-37.701611518859863
20
-34.900283813476562
10
-37.948410511016846
20
-34.823498725891113
10
-38.187682628631592
20
-34.725749492645264
10
-38.417656421661377
20
-34.607772827148438
10
-38.63661527633667
20
-34.470436573028564
10
-38.842945098876953
20
-34.31476354598999
10
-39.035110473632812
20
-34.141907691955566
10
-39.211680889129639
20
-33.953149318695068
10
-39.371349811553955
20
-33.749897480010986
10
-40.208072662353516
20
-32.643916606903076
10
-41.098799705505371
20
-31.580946445465088
10
-42.04132080078125
20
-30.563621520996094
10
-43.033304214477539
20
-29.594459533691406
10
-44.072284698486328
20
-28.67586612701416
10
-45.155692100524902
20
-27.810113430023193
10
-46.28084659576416
20
-26.999351978302002
10
-47.444949150085449
20
-26.24558687210083
10
-48.645119667053223
20
-25.550687313079834
10
-49.878387451171875
20
-24.916374683380127
10
-51.141695976257324
20
-24.344222545623779
10
-52.431902885437012
20
-23.835647106170654
10
-53.745832443237305
20
-23.39191198348999
10
-55.080208778381348
20
-23.014111518859863
10
-56.431736946105957
20
-22.703185081481934
10
-57.797064781188965
20
-22.459902763366699
10
-59.172797203063965
20
-22.284867763519287
10
-60.555548667907715
20
-22.178511619567871
10
-60.807509422302246
20
-22.154738903045654
10
-61.056571006774902
20
-22.109818458557129
10
-61.300954818725586
20
-22.044064998626709
10
-61.53892993927002
20
-21.957945823669434
10
-61.768803596496582
20
-21.852076053619385
0
LWPOLYLINE
5
104
100
AcDbEntity
8
0
100
AcDbPolyline
90
111
70
1
43
0.0
10
-63.400001525878906
20
-91.999998092651367
10
-63.400001525878906
20
-84.748735427856445
10
-63.400001525878906
20
-80.817451477050781
10
-63.389325141906738
20
-80.564603805541992
10
-63.357377052307129
20
-80.313549041748047
10
-63.304381370544434
20
-80.066080093383789
10
-63.230719566345215
20
-79.82396125793457
10
-63.136911392211914
20
-79.58890438079834
10
-63.023619651794434
20
-79.362597465515137
10
-62.891664505004883
20
-79.146647453308105
10
-62.741975784301758
20
-78.942580223083496
10
-62.575621604919434
20
-78.751864433288574
10
-62.393779754638672
20
-78.575835227966309
10
-62.197756767272949
20
-78.415770530700684
10
-61.988930702209473
20
-78.272790908813477
10
-61.768803596496582
20
-78.147926330566406
10
-61.53892993927002
20
-78.042054176330566
10
-61.300954818725586
20
-77.9559326171875
10
-61.056571006774902
20
-77.890181541442871
10
-60.807509422302246
20
-77.845263481140137
10
-60.555548667907715
20
-77.821488380432129
10
-59.172797203063965
20
-77.715134620666504
10
-57.797064781188965
20
-77.540092468261719
10
-56.431736946105957
20
-77.296814918518066
10
-55.080208778381348
20
-76.985888481140137
10
-53.745832443237305
20
-76.608085632324219
10
-52.431902885437012
20
-76.164355278015137
10
-51.141695976257324
20
-75.655779838562012
10
-49.878387451171875
20
-75.083627700805664
10
-48.645119667053223
20
-74.449310302734375
10
-47.444949150085449
20
-73.754410743713379
10
-46.28084659576416
20
-73.000650405883789
10
-45.155692100524902
20
-72.189888954162598
10
-44.072284698486328
20
-71.32413387298584
10
-43.033304214477539
20
-70.405540466308594
10
-42.04132080078125
20
-69.436378479003906
10
-41.098799705505371
20
-68.419051170349121
10
-40.208072662353516
20
-67.356081008911133
10
-39.371349811553955
20
-66.250100135803223
10
-39.211680889129639
20
-66.046853065490723
10
-39.035110473632812
20
-65.858092308044434
10
-38.842945098876953
20
-65.685234069824219
10
-38.63661527633667
20
-65.529565811157227
10
-38.417656421661377
20
-65.392227172851562
10
-38.187682628631592
20
-65.274248123168945
10
-37.948410511016846
20
-65.176501274108887
10
-37.701611518859863
20
-65.099716186523438
10
-37.449119091033936
20
-65.044455528259277
10
-37.192807197570801
20
-65.011134147644043
10
-36.934578418731689
20
-65
10
-29.751269817352295
20
-65
10
-25
20
-65
10
-24.738533496856689
20
-65.011415481567383
10
-24.479055404663086
20
-65.045580863952637
10
-24.223544597625732
20
-65.102219581604004
10
-23.973939418792725
20
-65.180926322937012
10
-23.732144832611084
20
-65.281076431274414
10
-23.500001430511475
20
-65.401926040649414
10
-23.279271125793457
20
-65.542540550231934
10
-23.071639537811279
20
-65.701866149902344
10
-22.878680229187012
20
-65.878677368164062
10
-22.701866626739502
20
-66.071634292602539
10
-22.542543411254883
20
-66.279268264770508
10
-22.401924133300781
20
-66.500000953674316
10
-22.281076908111572
20
-66.732149124145508
10
-22.180924415588379
20
-66.973938941955566
10
-22.102222442626953
20
-67.223544120788574
10
-22.045578956604004
20
-67.479057312011719
10
-22.011415958404541
20
-67.738533020019531
10
-22.000000476837158
20
-68.000001907348633
10
-22.000000476837158
20
-83.000001907348633
10
-22.033555507659912
20
-83.896760940551758
10
-22.134032249450684
20
-84.788503646850586
10
-22.300865650177002
20
-85.670251846313477
10
-22.533128261566162
20
-86.537065505981445
10
-22.829515933990479
20
-87.384090423583984
10
-23.188374042510986
20
-88.206605911254883
10
-23.60769510269165
20
-89.000005722045898
10
-24.085135459899902
20
-89.759845733642578
10
-24.618022441864014
20
-90.481882095336914
10
-25.203378200531006
20
-91.162071228027344
10
-25.837926864624023
20
-91.796627044677734
10
-26.518123149871826
20
-92.381973266601562
10
-27.240159511566162
20
-92.914867401123047
10
-27.999999523162842
20
-93.392305374145508
10
-28.793396949768066
20
-93.811626434326172
10
-29.615907669067383
20
-94.17048454284668
10
-30.462939739227295
20
-94.466876983642578
10
-31.329751014709473
20
-94.699134826660156
10
-32.211494445800781
20
-94.865970611572266
10
-33.103237152099609
20
-94.966449737548828
10
-34.000000953674316
20
-95
10
-60.400004386901855
20
-95
10
-60.647740364074707
20
-94.989757537841797
10
-60.893783569335938
20
-94.959087371826172
10
-61.136455535888672
20
-94.908208847045898
10
-61.374101638793945
20
-94.837446212768555
10
-61.605086326599121
20
-94.747323989868164
10
-61.827845573425293
20
-94.638423919677734
10
-62.040843963623047
20
-94.511499404907227
10
-62.242641448974609
20
-94.367427825927734
10
-62.431845664978027
20
-94.207172393798828
10
-62.607169151306152
20
-94.031848907470703
10
-62.767424583435059
20
-93.842639923095703
10
-62.911505699157715
20
-93.640851974487305
10
-63.038420677185059
20
-93.427839279174805
10
-63.147320747375488
20
-93.205089569091797
10
-63.237452507019043
20
-92.974100112915039
10
-63.308200836181641
20
-92.73646354675293
10
-63.359084129333496
20
-92.493782043457031
10
-63.389754295349121
20
-92.247734069824219
0
LWPOLYLINE
5
105
100
AcDbEntity
8
0
100
AcDbPolyline
90
91
70
1
43
0.0
10
-107.52094268798828
20
-48.654422760009766
10
-107.77646064758301
20
-48.597779273986816
10
-108.02606582641602
20
-48.519077301025391
10
-108.26786041259766
20
-48.418922424316406
10
-108.50000381469727
20
-48.298077583312988
10
-108.72073173522949
20
-48.157458305358887
10
-108.92836570739746
20
-47.998132705688477
10
-109.12132263183594
20
-47.821321487426758
10
-109.29813385009766
20
-47.628359794616699
10
-109.45745468139648
20
-47.42072582244873
10
-109.59807395935059
20
-47.200002670288086
10
-109.71892356872559
20
-46.967854499816895
10
-109.81907844543457
20
-46.726059913635254
10
-109.89777565002441
20
-46.476454734802246
10
-109.95442390441895
20
-46.220946311950684
10
-109.98858451843262
20
-45.961470603942871
10
-110
20
-45.70000171661377
10
-110
20
-34.989972114562988
10
-110
20
-29.539823532104492
10
-109.98880386352539
20
-29.28084135055542
10
-109.95528221130371
20
-29.02379035949707
10
-109.89970207214355
20
-28.770594596862793
10
-109.82247352600098
20
-28.523142337799072
10
-109.72416877746582
20
-28.283278942108154
10
-109.60553169250488
20
-28.052797317504883
10
-109.46742057800293
20
-27.833421230316162
10
-109.31090354919434
20
-27.626786231994629
10
-109.13713455200195
20
-27.434432506561279
10
-108.94740104675293
20
-27.257797718048096
10
-108.74312400817871
20
-27.098202705383301
10
-108.52583885192871
20
-26.956837177276611
10
-108.29715728759766
20
-26.834759712219238
10
-108.05879592895508
20
-26.732876300811768
10
-107.81252861022949
20
-26.651952266693115
10
-107.5601863861084
20
-26.592590808868408
10
-107.30366706848145
20
-26.555233001708984
10
-107.04488754272461
20
-26.540162563323975
10
-106.78576469421387
20
-26.547484397888184
10
-106.52823448181152
20
-26.577150821685791
10
-106.27424240112305
20
-26.628937721252441
10
-87.755823135375977
20
-31.246097087860107
10
-87.511882781982422
20
-31.318027973175049
10
-87.274913787841797
20
-31.410360336303711
10
-87.046613693237305
20
-31.522433757781982
10
-86.828632354736328
20
-31.653439998626709
10
-86.622524261474609
20
-31.80243968963623
10
-86.429777145385742
20
-31.968357563018799
10
-86.25178337097168
20
-32.150006294250488
10
-86.089811325073242
20
-32.346081733703613
10
-85.945014953613281
20
-32.55516529083252
10
-85.818462371826172
20
-32.775764465332031
10
-85.711050033569336
20
-33.00628662109375
10
-85.623540878295898
20
-33.245084285736084
10
-85.556573867797852
20
-33.490428924560547
10
-85.510625839233398
20
-33.740570545196533
10
-85.486030578613281
20
-33.993701934814453
10
-85.482969284057617
20
-34.248006343841553
10
-85.50145149230957
20
-34.501655101776123
10
-85.541353225708008
20
-34.752826690673828
10
-85.602378845214844
20
-34.99971866607666
10
-85.684108734130859
20
-35.240554809570312
10
-85.785932540893555
20
-35.473599433898926
10
-85.907135009765625
20
-35.69718599319458
10
-86.591033935546875
20
-36.907906532287598
10
-87.213659286499023
20
-38.151242733001709
10
-87.773466110229492
20
-39.424095153808594
10
-88.269071578979492
20
-40.723295211791992
10
-88.699245452880859
20
-42.045607566833496
10
-89.062881469726562
20
-43.387737274169922
10
-89.359111785888672
20
-44.746336936950684
10
-89.587173461914062
20
-46.118030548095703
10
-89.632835388183594
20
-46.366324424743652
10
-89.699211120605469
20
-46.609892845153809
10
-89.785842895507812
20
-46.847019195556641
10
-89.892101287841797
20
-47.076029777526855
10
-90.017223358154297
20
-47.295289039611816
10
-90.160350799560547
20
-47.503252029418945
10
-90.320444107055664
20
-47.698445320129395
10
-90.496397018432617
20
-47.879486083984375
10
-90.686941146850586
20
-48.045096397399902
10
-90.890722274780273
20
-48.194098472595215
10
-91.106328964233398
20
-48.325438499450684
10
-91.332206726074219
20
-48.438186645507812
10
-91.5667724609375
20
-48.531546592712402
10
-91.808347702026367
20
-48.604850769042969
10
-92.055234909057617
20
-48.657584190368652
10
-92.305669784545898
20
-48.689379692077637
10
-92.557907104492188
20
-48.700003623962402
10
-98.248739242553711
20
-48.700003623962402
10
-106.99999809265137
20
-48.700003623962402
10
-107.26146697998047
20
-48.688583374023438
0
LWPOLYLINE
5
106
100
AcDbEntity
8
0
100
AcDbPolyline
90
116
70
1
43
0.0
10
-86.46153450012207
20
-51.326265335083008
10
-86.497459411621094
20
-50
10
-86.46153450012207
20
-48.673734664916992
10
-86.353864669799805
20
-47.35135555267334
10
-86.174745559692383
20
-46.03675365447998
10
-85.924720764160156
20
-44.733767509460449
10
-85.604534149169922
20
-43.446235656738281
10
-85.21510124206543
20
-42.177920341491699
10
-84.757566452026367
20
-40.932555198669434
10
-84.233293533325195
20
-39.713783264160156
10
-83.643798828125
20
-38.525185585021973
10
-82.990827560424805
20
-37.370240688323975
10
-82.276277542114258
20
-36.252343654632568
10
-81.502256393432617
20
-35.174767971038818
10
-80.67103385925293
20
-34.140679836273193
10
-79.785041809082031
20
-33.153111934661865
10
-78.846888542175293
20
-32.214953899383545
10
-77.859320640563965
20
-31.328964233398438
10
-76.825227737426758
20
-30.497744083404541
10
-75.74765682220459
20
-29.7237229347229
10
-74.629759788513184
20
-29.009177684783936
10
-73.474817276000977
20
-28.356199264526367
10
-72.286219596862793
20
-27.766709327697754
10
-71.067442893981934
20
-27.242431640625
10
-69.822077751159668
20
-26.784904003143311
10
-68.553767204284668
20
-26.395473480224609
10
-67.266230583190918
20
-26.075277328491211
10
-65.963249206542969
20
-25.825257301330566
10
-64.648642539978027
20
-25.646147727966309
10
-63.326268196105957
20
-25.53847074508667
10
-62.000002861022949
20
-25.502541065216064
10
-60.673732757568359
20
-25.53847074508667
10
-59.351363182067871
20
-25.646147727966309
10
-58.03675651550293
20
-25.825257301330566
10
-56.733770370483398
20
-26.075277328491211
10
-55.44623851776123
20
-26.395473480224609
10
-54.17792797088623
20
-26.784904003143311
10
-52.932558059692383
20
-27.242431640625
10
-51.713786125183105
20
-27.766709327697754
10
-50.52518367767334
20
-28.356199264526367
10
-49.370241165161133
20
-29.009177684783936
10
-48.252344131469727
20
-29.7237229347229
10
-47.174773216247559
20
-30.497744083404541
10
-46.140685081481934
20
-31.328964233398438
10
-45.153112411499023
20
-32.214953899383545
10
-44.214959144592285
20
-33.153111934661865
10
-43.328967094421387
20
-34.140679836273193
10
-42.497744560241699
20
-35.174767971038818
10
-41.723723411560059
20
-36.252343654632568
10
-41.009178161621094
20
-37.370240688323975
10
-40.356202125549316
20
-38.525185585021973
10
-39.766709804534912
20
-39.713783264160156
10
-39.242432117462158
20
-40.932555198669434
10
-38.784904479980469
20
-42.177920341491699
10
-38.395473957061768
20
-43.446235656738281
10
-38.07528018951416
20
-44.733767509460449
10
-37.825260162353516
20
-46.03675365447998
10
-37.646148204803467
20
-47.35135555267334
10
-37.538471221923828
20
-48.673734664916992
10
-37.502541542053223
20
-50
10
-37.538471221923828
20
-51.326265335083008
10
-37.646148204803467
20
-52.648639678955078
10
-37.825260162353516
20
-53.96324634552002
10
-38.07528018951416
20
-55.266227722167969
10
-38.395473957061768
20
-56.553764343261719
10
-38.784904479980469
20
-57.822074890136719
10
-39.242432117462158
20
-59.067444801330566
10
-39.766709804534912
20
-60.286216735839844
10
-40.356202125549316
20
-61.474814414978027
10
-41.009178161621094
20
-62.629756927490234
10
-41.723723411560059
20
-63.747653961181641
10
-42.497744560241699
20
-64.825224876403809
10
-43.328967094421387
20
-65.859313011169434
10
-44.214959144592285
20
-66.846885681152344
10
-45.153112411499023
20
-67.785043716430664
10
-46.140685081481934
20
-68.671035766601562
10
-47.174773216247559
20
-69.50225830078125
10
-48.252344131469727
20
-70.276274681091309
10
-49.370241165161133
20
-70.990824699401855
10
-50.52518367767334
20
-71.643800735473633
10
-51.713786125183105
20
-72.233290672302246
10
-52.932558059692383
20
-72.757568359375
10
-54.17792797088623
20
-73.21509838104248
10
-55.44623851776123
20
-73.604521751403809
10
-56.733770370483398
20
-73.924722671508789
10
-58.03675651550293
20
-74.174742698669434
10
-59.351363182067871
20
-74.353852272033691
10
-60.673732757568359
20
-74.461531639099121
10
-62.000002861022949
20
-74.497461318969727
10
-63.326268196105957
20
-74.461531639099121
10
-64.648642539978027
20
-74.353852272033691
10
-65.963249206542969
20
-74.174742698669434
10
-67.266230583190918
20
-73.924722671508789
10
-68.553767204284668
20
-73.604521751403809
10
-69.822077751159668
20
-73.21509838104248
10
-71.067442893981934
20
-72.757568359375
10
-72.286219596862793
20
-72.233290672302246
10
-73.474817276000977
20
-71.643800735473633
10
-74.629759788513184
20
-70.990824699401855
10
-75.74765682220459
20
-70.276274681091309
10
-76.825227737426758
20
-69.50225830078125
10
-77.859320640563965
20
-68.671035766601562
10
-78.846888542175293
20
-67.785043716430664
10
-79.785041809082031
20
-66.846885681152344
10
-80.67103385925293
20
-65.859313011169434
10
-81.502256393432617
20
-64.825224876403809
10
-82.276277542114258
20
-63.747653961181641
10
-82.990827560424805
20
-62.629756927490234
10
-83.643798828125
20
-61.474814414978027
10
-84.233293533325195
20
-60.286216735839844
10
-84.757566452026367
20
-59.067444801330566
10
-85.21510124206543
20
-57.822074890136719
10
-85.604534149169922
20
-56.553764343261719
10
-85.924720764160156
20
-55.266227722167969
10
-86.174745559692383
20
-53.96324634552002
10
-86.353864669799805
20
-52.648639678955078
0
LWPOLYLINE
5
107
100
AcDbEntity
8
0
100
AcDbPolyline
90
92
70
1
43
0.0
10
-110
20
-58.15000057220459
10
-110
20
-57.750000953674316
10
-110
20
-54.29999828338623
10
-109.98858451843262
20
-54.038534164428711
10
-109.95442390441895
20
-53.779053688049316
10
-109.89777565002441
20
-53.523540496826172
10
-109.81907844543457
20
-53.273940086364746
10
-109.71892356872559
20
-53.032145500183105
10
-109.59807395935059
20
-52.800002098083496
10
-109.45745468139648
20
-52.579269409179688
10
-109.29813385009766
20
-52.371635437011719
10
-109.12132263183594
20
-52.178683280944824
10
-108.92836570739746
20
-52.001867294311523
10
-108.72073173522949
20
-51.842546463012695
10
-108.50000381469727
20
-51.701922416687012
10
-108.26786041259766
20
-51.581077575683594
10
-108.02606582641602
20
-51.480922698974609
10
-107.77646064758301
20
-51.402220726013184
10
-107.52094268798828
20
-51.345577239990234
10
-107.26146697998047
20
-51.311416625976562
10
-106.99999809265137
20
-51.30000114440918
10
-98.248739242553711
20
-51.30000114440918
10
-92.557907104492188
20
-51.30000114440918
10
-92.305669784545898
20
-51.310625076293945
10
-92.055234909057617
20
-51.342411041259766
10
-91.808347702026367
20
-51.395149230957031
10
-91.5667724609375
20
-51.46845817565918
10
-91.332206726074219
20
-51.561813354492188
10
-91.106328964233398
20
-51.674561500549316
10
-90.890722274780273
20
-51.805901527404785
10
-90.686941146850586
20
-51.954903602600098
10
-90.496397018432617
20
-52.120509147644043
10
-90.320444107055664
20
-52.301554679870605
10
-90.160350799560547
20
-52.496747970581055
10
-90.017223358154297
20
-52.704710960388184
10
-89.892101287841797
20
-52.923974990844727
10
-89.785842895507812
20
-53.152976036071777
10
-89.699211120605469
20
-53.390107154846191
10
-89.632835388183594
20
-53.63368034362793
10
-89.587173461914062
20
-53.881969451904297
10
-89.359111785888672
20
-55.253658294677734
10
-89.062881469726562
20
-56.612262725830078
10
-88.699245452880859
20
-57.954392433166504
10
-88.269071578979492
20
-59.276704788208008
10
-87.773466110229492
20
-60.575904846191406
10
-87.213659286499023
20
-61.848759651184082
10
-86.591033935546875
20
-63.092093467712402
10
-85.907135009765625
20
-64.302811622619629
10
-85.785932540893555
20
-64.526400566101074
10
-85.684108734130859
20
-64.759445190429688
10
-85.602378845214844
20
-65.00028133392334
10
-85.541353225708008
20
-65.24716854095459
10
-85.50145149230957
20
-65.498347282409668
10
-85.482969284057617
20
-65.751991271972656
10
-85.486030578613281
20
-66.006302833557129
10
-85.510625839233398
20
-66.259431838989258
10
-85.556573867797852
20
-66.509566307067871
10
-85.623540878295898
20
-66.754913330078125
10
-85.711050033569336
20
-66.99371337890625
10
-85.818462371826172
20
-67.224235534667969
10
-85.945014953613281
20
-67.44483470916748
10
-86.089811325073242
20
-67.653923034667969
10
-86.25178337097168
20
-67.849993705749512
10
-86.429777145385742
20
-68.03164005279541
10
-86.622524261474609
20
-68.197565078735352
10
-86.828632354736328
20
-68.3465576171875
10
-87.046613693237305
20
-68.477563858032227
10
-87.274913787841797
20
-68.589639663696289
10
-87.511882781982422
20
-68.68196964263916
10
-87.755823135375977
20
-68.753900527954102
10
-106.27424240112305
20
-73.371062278747559
10
-106.52823448181152
20
-73.422846794128418
10
-106.78576469421387
20
-73.452515602111816
10
-107.04488754272461
20
-73.459839820861816
10
-107.30366706848145
20
-73.444762229919434
10
-107.5601863861084
20
-73.407411575317383
10
-107.81252861022949
20
-73.348045349121094
10
-108.05879592895508
20
-73.267121315002441
10
-108.29715728759766
20
-73.165245056152344
10
-108.52583885192871
20
-73.043160438537598
10
-108.74312400817871
20
-72.901797294616699
10
-108.94740104675293
20
-72.742204666137695
10
-109.13713455200195
20
-72.565569877624512
10
-109.31090354919434
20
-72.373213768005371
10
-109.46742057800293
20
-72.166581153869629
10
-109.60553169250488
20
-71.947197914123535
10
-109.72416877746582
20
-71.716723442077637
10
-109.82247352600098
20
-71.476860046386719
10
-109.89970207214355
20
-71.229400634765625
10
-109.95528221130371
20
-70.976204872131348
10
-109.98880386352539
20
-70.719161033630371
10
-110
20
-70.460176467895508
0
ENDSEC
0
SECTION
2
OBJECTS
0
DICTIONARY
5
C
100
AcDbDictionary
3
ACAD_GROUP
350
D
3
ACAD_MLINESTYLE
350
17
0
DICTIONARY
5
D
100
AcDbDictionary
0
DICTIONARY
5
1A
330
C
100
AcDbDictionary
0
DICTIONARY
5
17
100
AcDbDictionary
0
ENDSEC
0
EOF
