0
SECTION
2
HEADER
9
$INSUNITS
70
4
9
$ACADVER
1
AC1014
9
$HANDSEED
5
FFFF
0
ENDSEC
0
SECTION
2
TABLES
0
TABLE
2
VPORT
5
8
100
AcDbSymbolTable
0
ENDTAB
0
TABLE
2
LTYPE
5
5
100
AcDbSymbolTable
0
LTYPE
5
14
100
AcDbSymbolTableRecord
100
AcDbLinetypeTableRecord
2
BYBLOCK
70
0
0
LTYPE
5
15
100
AcDbSymbolTableRecord
100
AcDbLinetypeTableRecord
2
BYLAYER
70
0
0
LTYPE
5
16
100
AcDbSymbolTableRecord
100
AcDbLinetypeTableRecord
2
DASHED
70
0
3
Dashed __ __ __ __ __ __ __ __ __ __ __ __ __ _
72
65
73
2
40
0.75
49
0.5
74
0
49
-0.25
74
0
0
ENDTAB
0
TABLE
2
LAYER
5
2
100
AcDbSymbolTable
70
2
0
LAYER
5
50
100
AcDbSymbolTableRecord
100
AcDbLayerTableRecord
2
0
70
0
62
7
6
CONTINUOUS
0
ENDTAB
0
TABLE
2
STYLE
5
3
100
AcDbSymbolTable
70
1
0
STYLE
5
11
100
AcDbSymbolTableRecord
100
AcDbTextStyleTableRecord
2
STANDARD
70
0
0
ENDTAB
0
TABLE
2
VIEW
5
6
100
AcDbSymbolTable
70
0
0
ENDTAB
0
TABLE
2
UCS
5
7
100
AcDbSymbolTable
70
0
0
ENDTAB
0
TABLE
2
APPID
5
9
100
AcDbSymbolTable
70
2
0
APPID
5
12
100
AcDbSymbolTableRecord
100
AcDbRegAppTableRecord
2
ACAD
70
0
0
ENDTAB
0
TABLE
2
DIMSTYLE
5
A
100
AcDbSymbolTable
70
1
0
ENDTAB
0
TABLE
2
BLOCK_RECORD
5
1
100
AcDbSymbolTable
70
1
0
BLOCK_RECORD
5
1F
100
AcDbSymbolTableRecord
100
AcDbBlockTableRecord
2
*MODEL_SPACE
0
BLOCK_RECORD
5
1B
100
AcDbSymbolTableRecord
100
AcDbBlockTableRecord
2
*PAPER_SPACE
0
ENDTAB
0
ENDSEC
0
SECTION
2
BLOCKS
0
BLOCK
5
20
100
AcDbEntity
100
AcDbBlockBegin
2
*MODEL_SPACE
0
ENDBLK
5
21
100
AcDbEntity
100
AcDbBlockEnd
0
BLOCK
5
1C
100
AcDbEntity
100
AcDbBlockBegin
2
*PAPER_SPACE
0
ENDBLK
5
1D
100
AcDbEntity
100
AcDbBlockEnd
0
ENDSEC
0
SECTION
2
ENTITIES
0
LWPOLYLINE
5
100
100
AcDbEntity
8
0
100
AcDbPolyline
90
95
70
1
43
0.0
10
-108.0280590057373
20
-78.37313175201416
10
-108.10320854187012
20
-78.461527824401855
10
-108.17080497741699
20
-78.555841445922852
10
-108.2303524017334
20
-78.655428886413574
10
-108.28144073486328
20
-78.759608268737793
10
-108.3237361907959
20
-78.867654800415039
10
-108.35692405700684
20
-78.978838920593262
10
-108.38080406188965
20
-79.09238338470459
10
-108.39519500732422
20
-79.207520484924316
10
-108.40000152587891
20
-79.32344913482666
10
-108.40000152587891
20
-84.000005722045898
10
-108.36790084838867
20
-84.776248931884766
10
-108.27179908752441
20
-85.547189712524414
10
-108.11236381530762
20
-86.307563781738281
10
-107.89069175720215
20
-87.052183151245117
10
-107.6082706451416
20
-87.775936126708984
10
-107.26705551147461
20
-88.473911285400391
10
-106.8693733215332
20
-89.141311645507812
10
-106.41792297363281
20
-89.773597717285156
10
-105.91580390930176
20
-90.366449356079102
10
-105.3664493560791
20
-90.915803909301758
10
-104.77359771728516
20
-91.417922973632812
10
-104.14131164550781
20
-91.869363784790039
10
-103.47391128540039
20
-92.267055511474609
10
-102.77594566345215
20
-92.608270645141602
10
-102.05217361450195
20
-92.890682220458984
10
-101.30756378173828
20
-93.112363815307617
10
-100.54719924926758
20
-93.271799087524414
10
-99.776248931884766
20
-93.367900848388672
10
-99.000005722045898
20
-93.400001525878906
10
-69.000000953674316
20
-93.400001525878906
10
-68.877983093261719
20
-93.394670486450195
10
-68.756890296936035
20
-93.378734588623047
10
-68.637652397155762
20
-93.352298736572266
10
-68.521170616149902
20
-93.315572738647461
10
-68.408331871032715
20
-93.268833160400391
10
-68.300004005432129
20
-93.212432861328125
10
-68.19699764251709
20
-93.146810531616211
10
-68.100099563598633
20
-93.07246208190918
10
-68.010058403015137
20
-92.989950180053711
10
-67.927536964416504
20
-92.899904251098633
10
-67.853188514709473
20
-92.803001403808594
10
-67.787566184997559
20
-92.700004577636719
10
-67.731170654296875
20
-92.591667175292969
10
-67.684435844421387
20
-92.478828430175781
10
-67.647705078125
20
-92.362346649169922
10
-67.621269226074219
20
-92.243108749389648
10
-67.605323791503906
20
-92.122020721435547
10
-67.599997520446777
20
-91.999998092651367
10
-67.599997520446777
20
-80.054540634155273
10
-67.604918479919434
20
-79.937257766723633
10
-67.61965274810791
20
-79.820795059204102
10
-67.644081115722656
20
-79.705977439880371
10
-67.678055763244629
20
-79.593615531921387
10
-67.721314430236816
20
-79.484491348266602
10
-67.773566246032715
20
-79.379372596740723
10
-67.834444046020508
20
-79.278998374938965
10
-67.903504371643066
20
-79.184083938598633
10
-67.980279922485352
20
-79.095282554626465
10
-68.064231872558594
20
-79.013228416442871
10
-68.154754638671875
20
-78.938493728637695
10
-68.251223564147949
20
-78.871607780456543
10
-68.352952003479004
20
-78.813042640686035
10
-68.45923900604248
20
-78.763198852539062
10
-68.56931209564209
20
-78.722434043884277
10
-68.682427406311035
20
-78.691034317016602
10
-70.085501670837402
20
-78.32763671875
10
-71.469011306762695
20
-77.895669937133789
10
-72.829599380493164
20
-77.396173477172852
10
-74.163966178894043
20
-76.830363273620605
10
-75.468897819519043
20
-76.199607849121094
10
-76.741213798522949
20
-75.505433082580566
10
-77.977852821350098
20
-74.749512672424316
10
-79.175820350646973
20
-73.93369197845459
10
-80.332212448120117
20
-73.059935569763184
10
-81.444225311279297
20
-72.130355834960938
10
-81.531705856323242
20
-72.059512138366699
10
-81.624612808227539
20
-71.99592113494873
10
-81.722326278686523
20
-71.94000244140625
10
-81.824216842651367
20
-71.892123222351074
10
-81.929616928100586
20
-71.852579116821289
10
-82.037858963012695
20
-71.821627616882324
10
-82.148237228393555
20
-71.799478530883789
10
-82.260046005249023
20
-71.78626537322998
10
-82.372541427612305
20
-71.782083511352539
10
-82.485008239746094
20
-71.786952018737793
10
-82.596731185913086
20
-71.80084228515625
10
-82.706975936889648
20
-71.823663711547852
10
-107.33868598937988
20
-77.965035438537598
10
-107.45001792907715
20
-77.997751235961914
10
-107.55825042724609
20
-78.039565086364746
10
-107.66264915466309
20
-78.090205192565918
10
-107.76248931884766
20
-78.149313926696777
10
-107.85711288452148
20
-78.216485977172852
10
-107.94583320617676
20
-78.291258811950684
0
LWPOLYLINE
5
101
100
AcDbEntity
8
0
100
AcDbPolyline
90
108
70
1
43
0.0
10
-61.472463607788086
20
-92.899904251098633
10
-61.389951705932617
20
-92.989950180053711
10
-61.299905776977539
20
-93.07246208190918
10
-61.203007698059082
20
-93.146810531616211
10
-61.100001335144043
20
-93.212432861328125
10
-60.991663932800293
20
-93.268833160400391
10
-60.878829956054688
20
-93.315572738647461
10
-60.762348175048828
20
-93.352298736572266
10
-60.643110275268555
20
-93.378734588623047
10
-60.522017478942871
20
-93.394670486450195
10
-60.400004386901855
20
-93.400001525878906
10
-34.000000953674316
20
-93.400001525878906
10
-33.184025287628174
20
-93.367938995361328
10
-32.373082637786865
20
-93.271961212158203
10
-31.572167873382568
20
-93.112649917602539
10
-30.78622579574585
20
-92.890987396240234
10
-30.020091533660889
20
-92.608346939086914
10
-29.278500080108643
20
-92.266464233398438
10
-28.566014766693115
20
-91.867456436157227
10
-27.88703441619873
20
-91.413784027099609
10
-27.24574089050293
20
-90.908222198486328
10
-26.646089553833008
20
-90.353918075561523
10
-26.09177827835083
20
-89.754257202148438
10
-25.586223602294922
20
-89.112968444824219
10
-25.132544040679932
20
-88.433980941772461
10
-24.733531475067139
20
-87.72150993347168
10
-24.391653537750244
20
-86.979904174804688
10
-24.109013080596924
20
-86.213779449462891
10
-23.887355327606201
20
-85.427837371826172
10
-23.728041648864746
20
-84.626913070678711
10
-23.63206148147583
20
-83.815975189208984
10
-23.600001335144043
20
-83.000001907348633
10
-23.600001335144043
20
-68.000001907348633
10
-23.605327606201172
20
-67.877984046936035
10
-23.621270656585693
20
-67.756891250610352
10
-23.647706508636475
20
-67.637648582458496
10
-23.684432506561279
20
-67.521171569824219
10
-23.731169700622559
20
-67.408332824707031
10
-23.787565231323242
20
-67.300004959106445
10
-23.853187561035156
20
-67.196993827819824
10
-23.927538394927979
20
-67.100100517272949
10
-24.010052680969238
20
-67.010049819946289
10
-24.100098609924316
20
-66.92753791809082
10
-24.196994304656982
20
-66.853189468383789
10
-24.300000667572021
20
-66.787562370300293
10
-24.40833568572998
20
-66.731171607971191
10
-24.521172046661377
20
-66.684432029724121
10
-24.637653827667236
20
-66.647706031799316
10
-24.756894111633301
20
-66.621270179748535
10
-24.877984523773193
20
-66.605324745178223
10
-25
20
-66.599998474121094
10
-36.934578418731689
20
-66.599998474121094
10
-37.055084705352783
20
-66.605195999145508
10
-37.174699306488037
20
-66.620745658874512
10
-37.292525768280029
20
-66.646533012390137
10
-37.407701015472412
20
-66.682367324829102
10
-37.519359588623047
20
-66.727981567382812
10
-37.626678943634033
20
-66.783037185668945
10
-37.728862762451172
20
-66.847128868103027
10
-37.825150489807129
20
-66.919779777526855
10
-37.9148268699646
20
-67.000441551208496
10
-37.997226715087891
20
-67.088532447814941
10
-38.071739673614502
20
-67.183380126953125
10
-38.908505439758301
20
-68.292436599731445
10
-39.79663610458374
20
-69.360809326171875
10
-40.734143257141113
20
-70.38611888885498
10
-41.718955039978027
20
-71.366081237792969
10
-42.748870849609375
20
-72.298521995544434
10
-43.821606636047363
20
-73.181381225585938
10
-44.934773445129395
20
-74.012675285339355
10
-46.085896492004395
20
-74.790549278259277
10
-47.27241039276123
20
-75.513300895690918
10
-48.491683006286621
20
-76.179299354553223
10
-49.741001129150391
20
-76.787071228027344
10
-51.017584800720215
20
-77.335267066955566
10
-52.318596839904785
20
-77.822670936584473
10
-53.641142845153809
20
-78.248186111450195
10
-54.98227596282959
20
-78.610873222351074
10
-56.339015960693359
20
-78.909921646118164
10
-57.708353996276855
20
-79.144678115844727
10
-59.087233543395996
20
-79.314608573913574
10
-60.472588539123535
20
-79.419336318969727
10
-60.590167045593262
20
-79.430427551269531
10
-60.706400871276855
20
-79.451394081115723
10
-60.820446014404297
20
-79.482078552246094
10
-60.931506156921387
20
-79.522271156311035
10
-61.038775444030762
20
-79.571671485900879
10
-61.141500473022461
20
-79.629945755004883
10
-61.238951683044434
20
-79.696664810180664
10
-61.330432891845703
20
-79.771361351013184
10
-61.415290832519531
20
-79.853510856628418
10
-61.492919921875
20
-79.942512512207031
10
-61.56278133392334
20
-80.037746429443359
10
-61.624360084533691
20
-80.138521194458008
10
-61.67722225189209
20
-80.244131088256836
10
-61.721005439758301
20
-80.353822708129883
10
-61.755380630493164
20
-80.466814041137695
10
-61.780109405517578
20
-80.582304000854492
10
-61.79502010345459
20
-80.699453353881836
10
-61.800003051757812
20
-80.817451477050781
10
-61.800003051757812
20
-91.999998092651367
10
-61.794676780700684
20
-92.122020721435547
10
-61.778731346130371
20
-92.243108749389648
10
-61.75229549407959
20
-92.362346649169922
10
-61.715574264526367
20
-92.478828430175781
10
-61.668829917907715
20
-92.591667175292969
10
-61.612439155578613
20
-92.700004577636719
10
-61.546812057495117
20
-92.803001403808594
0
LWPOLYLINE
5
102
100
AcDbEntity
8
0
100
AcDbPolyline
90
90
70
1
43
0.0
10
-87.811927795410156
20
-67.07247257232666
10
-87.710208892822266
20
-67.011337280273438
10
-87.614021301269531
20
-66.941804885864258
10
-87.524080276489258
20
-66.864371299743652
10
-87.441015243530273
20
-66.779603958129883
10
-87.36541748046875
20
-66.688103675842285
10
-87.297849655151367
20
-66.590533256530762
10
-87.238798141479492
20
-66.487588882446289
10
-87.18867301940918
20
-66.3800048828125
10
-87.1478271484375
20
-66.268572807312012
10
-87.116575241088867
20
-66.154074668884277
10
-87.095136642456055
20
-66.03734016418457
10
-87.083654403686523
20
-65.91921329498291
10
-87.082233428955078
20
-65.800538063049316
10
-87.090864181518555
20
-65.682168006896973
10
-87.109479904174805
20
-65.564956665039062
10
-87.137956619262695
20
-65.449738502502441
10
-87.176094055175781
20
-65.337347984313965
10
-87.223615646362305
20
-65.228590965270996
10
-87.280178070068359
20
-65.12425422668457
10
-87.926168441772461
20
-63.98801326751709
10
-88.521108627319336
20
-62.824239730834961
10
-89.063854217529297
20
-61.635217666625977
10
-89.553318023681641
20
-60.423293113708496
10
-89.988546371459961
20
-59.190850257873535
10
-90.368680953979492
20
-57.940311431884766
10
-90.692968368530273
20
-56.674151420593262
10
-90.960769653320312
20
-55.394845008850098
10
-91.171560287475586
20
-54.10491943359375
10
-91.192874908447266
20
-53.989048004150391
10
-91.223850250244141
20
-53.875384330749512
10
-91.264276504516602
20
-53.764724731445312
10
-91.313858032226562
20
-53.657851219177246
10
-91.372251510620117
20
-53.55553150177002
10
-91.439046859741211
20
-53.458480834960938
10
-91.513757705688477
20
-53.367390632629395
10
-91.595869064331055
20
-53.282904624938965
10
-91.684789657592773
20
-53.205618858337402
10
-91.779890060424805
20
-53.136086463928223
10
-91.880502700805664
20
-53.074793815612793
10
-91.985912322998047
20
-53.02217960357666
10
-92.095375061035156
20
-52.978610992431641
10
-92.208108901977539
20
-52.944402694702148
10
-92.323331832885742
20
-52.919793128967285
10
-92.440195083618164
20
-52.904958724975586
10
-92.557907104492188
20
-52.899999618530273
10
-106.99999809265137
20
-52.899999618530273
10
-107.12202072143555
20
-52.905325889587402
10
-107.24310874938965
20
-52.921271324157715
10
-107.36235618591309
20
-52.947707176208496
10
-107.47882843017578
20
-52.984428405761719
10
-107.59166717529297
20
-53.031172752380371
10
-107.70000457763672
20
-53.087563514709473
10
-107.80301094055176
20
-53.153185844421387
10
-107.89990425109863
20
-53.227534294128418
10
-107.98995018005371
20
-53.310050964355469
10
-108.07246208190918
20
-53.400096893310547
10
-108.14681053161621
20
-53.496994972229004
10
-108.21244239807129
20
-53.600001335144043
10
-108.26883316040039
20
-53.708333969116211
10
-108.31557273864746
20
-53.821172714233398
10
-108.35229873657227
20
-53.937654495239258
10
-108.37873458862305
20
-54.056892395019531
10
-108.39468002319336
20
-54.177985191345215
10
-108.40000152587891
20
-54.29999828338623
10
-108.40000152587891
20
-70.460176467895508
10
-108.394775390625
20
-70.58103084564209
10
-108.37912559509277
20
-70.70098876953125
10
-108.35319519042969
20
-70.819144248962402
10
-108.3171558380127
20
-70.934624671936035
10
-108.27128410339355
20
-71.046562194824219
10
-108.21591377258301
20
-71.154122352600098
10
-108.15146446228027
20
-71.256494522094727
10
-108.07842254638672
20
-71.352930068969727
10
-107.9973316192627
20
-71.442689895629883
10
-107.90878295898438
20
-71.525125503540039
10
-107.81346321105957
20
-71.599602699279785
10
-107.71205902099609
20
-71.665568351745605
10
-107.6053524017334
20
-71.722540855407715
10
-107.49411582946777
20
-71.770081520080566
10
-107.37917900085449
20
-71.807847023010254
10
-107.26141929626465
20
-71.835551261901855
10
-107.14171409606934
20
-71.852984428405762
10
-107.02094078063965
20
-71.860017776489258
10
-106.90001487731934
20
-71.856598854064941
10
-106.77984237670898
20
-71.842761039733887
10
-106.66131019592285
20
-71.81859016418457
10
-88.142890930175781
20
-67.201433181762695
10
-88.029050827026367
20
-67.167863845825195
10
-87.918472290039062
20
-67.124772071838379
0
LWPOLYLINE
5
103
100
AcDbEntity
8
0
100
AcDbPolyline
90
90
70
1
43
0.0
10
-87.297849655151367
20
-33.409469127655029
10
-87.36541748046875
20
-33.311893939971924
10
-87.441015243530273
20
-33.220393657684326
10
-87.524080276489258
20
-33.135623931884766
10
-87.614021301269531
20
-33.058197498321533
10
-87.710208892822266
20
-32.988662719726562
10
-87.811927795410156
20
-32.927525043487549
10
-87.918472290039062
20
-32.87522554397583
10
-88.029050827026367
20
-32.832138538360596
10
-88.142890930175781
20
-32.798569202423096
10
-106.66131019592285
20
-28.18140983581543
10
-106.77984237670898
20
-28.157243728637695
10
-106.90001487731934
20
-28.143398761749268
10
-107.02094078063965
20
-28.139979839324951
10
-107.14171409606934
20
-28.147015571594238
10
-107.26141929626465
20
-28.164448738098145
10
-107.37917900085449
20
-28.192150592803955
10
-107.49411582946777
20
-28.229913711547852
10
-107.6053524017334
20
-28.277461528778076
10
-107.71205902099609
20
-28.334429264068604
10
-107.81346321105957
20
-28.400399684906006
10
-107.90878295898438
20
-28.474879264831543
10
-107.9973316192627
20
-28.557307720184326
10
-108.07842254638672
20
-28.647072315216064
10
-108.15146446228027
20
-28.743503093719482
10
-108.21591377258301
20
-28.845880031585693
10
-108.27128410339355
20
-28.95343542098999
10
-108.3171558380127
20
-29.065372943878174
10
-108.35319519042969
20
-29.180850982666016
10
-108.37912559509277
20
-29.299008846282959
10
-108.394775390625
20
-29.418966770172119
10
-108.40000152587891
20
-29.539823532104492
10
-108.40000152587891
20
-45.70000171661377
10
-108.39468002319336
20
-45.822019577026367
10
-108.37873458862305
20
-45.943107604980469
10
-108.35229873657227
20
-46.062350273132324
10
-108.31557273864746
20
-46.178832054138184
10
-108.26883316040039
20
-46.291666030883789
10
-108.21244239807129
20
-46.399998664855957
10
-108.14681053161621
20
-46.503005027770996
10
-108.07246208190918
20
-46.599903106689453
10
-107.98995018005371
20
-46.689949035644531
10
-107.89990425109863
20
-46.7724609375
10
-107.80301094055176
20
-46.846814155578613
10
-107.70000457763672
20
-46.912436485290527
10
-107.59166717529297
20
-46.968832015991211
10
-107.47882843017578
20
-47.015566825866699
10
-107.36235618591309
20
-47.052297592163086
10
-107.24310874938965
20
-47.078733444213867
10
-107.12202072143555
20
-47.094674110412598
10
-106.99999809265137
20
-47.100000381469727
10
-92.557907104492188
20
-47.100000381469727
10
-92.440195083618164
20
-47.095046043395996
10
-92.323331832885742
20
-47.080206871032715
10
-92.208108901977539
20
-47.055597305297852
10
-92.095375061035156
20
-47.021384239196777
10
-91.985912322998047
20
-46.97782039642334
10
-91.880502700805664
20
-46.925206184387207
10
-91.779890060424805
20
-46.863913536071777
10
-91.684789657592773
20
-46.794376373291016
10
-91.595869064331055
20
-46.717095375061035
10
-91.513757705688477
20
-46.632609367370605
10
-91.439046859741211
20
-46.54151439666748
10
-91.372251510620117
20
-46.44446849822998
10
-91.313858032226562
20
-46.342144012451172
10
-91.264276504516602
20
-46.235275268554688
10
-91.223850250244141
20
-46.124615669250488
10
-91.192874908447266
20
-46.010947227478027
10
-91.171560287475586
20
-45.89508056640625
10
-90.960769653320312
20
-44.605154991149902
10
-90.692968368530273
20
-43.32585334777832
10
-90.368680953979492
20
-42.059683799743652
10
-89.988546371459961
20
-40.809149742126465
10
-89.553318023681641
20
-39.576706886291504
10
-89.063854217529297
20
-38.364779949188232
10
-88.521108627319336
20
-37.17576265335083
10
-87.926168441772461
20
-36.01198673248291
10
-87.280178070068359
20
-34.875743389129639
10
-87.223615646362305
20
-34.771404266357422
10
-87.176094055175781
20
-34.662647247314453
10
-87.137956619262695
20
-34.55026388168335
10
-87.109479904174805
20
-34.435043334960938
10
-87.090864181518555
20
-34.317829608917236
10
-87.082233428955078
20
-34.199459552764893
10
-87.083654403686523
20
-34.080784320831299
10
-87.095136642456055
20
-33.962657451629639
10
-87.116575241088867
20
-33.845925331115723
10
-87.1478271484375
20
-33.731429576873779
10
-87.18867301940918
20
-33.619992733001709
10
-87.238798141479492
20
-33.512413501739502
0
LWPOLYLINE
5
104
100
AcDbEntity
8
0
100
AcDbPolyline
90
95
70
1
43
0.0
10
-107.66264915466309
20
-21.909797191619873
10
-107.55825042724609
20
-21.960430145263672
10
-107.45001792907715
20
-22.002251148223877
10
-107.33868598937988
20
-22.034962177276611
10
-82.706975936889648
20
-28.176338672637939
10
-82.596731185913086
20
-28.199160099029541
10
-82.485008239746094
20
-28.213050365447998
10
-82.372541427612305
20
-28.217916488647461
10
-82.260046005249023
20
-28.21373462677002
10
-82.148237228393555
20
-28.200523853302002
10
-82.037858963012695
20
-28.178374767303467
10
-81.929616928100586
20
-28.147425651550293
10
-81.824216842651367
20
-28.107879161834717
10
-81.722326278686523
20
-28.059995174407959
10
-81.624612808227539
20
-28.004076480865479
10
-81.531705856323242
20
-27.940487861633301
10
-81.444225311279297
20
-27.869641780853271
10
-80.332212448120117
20
-26.940066814422607
10
-79.175820350646973
20
-26.06630802154541
10
-77.977852821350098
20
-25.250482559204102
10
-76.741213798522949
20
-24.494569301605225
10
-75.468897819519043
20
-23.800394535064697
10
-74.163966178894043
20
-23.169636726379395
10
-72.829599380493164
20
-22.603826522827148
10
-71.469011306762695
20
-22.104332447052002
10
-70.085501670837402
20
-21.672365665435791
10
-68.682427406311035
20
-21.308963298797607
10
-68.56931209564209
20
-21.277565956115723
10
-68.45923900604248
20
-21.236803531646729
10
-68.352952003479004
20
-21.186959743499756
10
-68.251223564147949
20
-21.128389835357666
10
-68.154754638671875
20
-21.061503887176514
10
-68.064231872558594
20
-20.986769199371338
10
-67.980279922485352
20
-20.904717445373535
10
-67.903504371643066
20
-20.815916061401367
10
-67.834444046020508
20
-20.720999240875244
10
-67.773566246032715
20
-20.620629787445068
10
-67.721314430236816
20
-20.515508651733398
10
-67.678055763244629
20
-20.406384468078613
10
-67.644081115722656
20
-20.294017791748047
10
-67.61965274810791
20
-20.179202556610107
10
-67.604918479919434
20
-20.062739849090576
10
-67.599997520446777
20
-19.945458173751831
10
-67.599997520446777
20
-7.9999977350234985
10
-67.605323791503906
20
-7.8779792785644531
10
-67.621269226074219
20
-7.7568930387496948
10
-67.647705078125
20
-7.6376533508300781
10
-67.684435844421387
20
-7.521170973777771
10
-67.731170654296875
20
-7.4083322286605835
10
-67.787566184997559
20
-7.300000786781311
10
-67.853188514709473
20
-7.1969932317733765
10
-67.927536964416504
20
-7.1000975370407104
10
-68.010058403015137
20
-7.0100504159927368
10
-68.100099563598633
20
-6.9275391101837158
10
-68.19699764251709
20
-6.8531858921051025
10
-68.300004005432129
20
-6.787564754486084
10
-68.408331871032715
20
-6.7311674356460571
10
-68.521170616149902
20
-6.6844302415847778
10
-68.637652397155762
20
-6.6477024555206299
10
-68.756890296936035
20
-6.6212677955627441
10
-68.877983093261719
20
-6.6053271293640137
10
-69.000000953674316
20
-6.600000262260437
10
-99.000005722045898
20
-6.600000262260437
10
-99.776248931884766
20
-6.6321045160293579
10
-100.54719924926758
20
-6.7282021045684814
10
-101.30756378173828
20
-6.8876373767852783
10
-102.05217361450195
20
-7.1093177795410156
10
-102.77594566345215
20
-7.3917287588119507
10
-103.47391128540039
20
-7.7329462766647339
10
-104.14131164550781
20
-8.1306362152099609
10
-104.77359771728516
20
-8.582078218460083
10
-105.3664493560791
20
-9.0841954946517944
10
-105.91580390930176
20
-9.6335524320602417
10
-106.41792297363281
20
-10.226398706436157
10
-106.8693733215332
20
-10.858684778213501
10
-107.26705551147461
20
-11.526092290878296
10
-107.6082706451416
20
-12.22406268119812
10
-107.89069175720215
20
-12.947824001312256
10
-108.11236381530762
20
-13.692435026168823
10
-108.27179908752441
20
-14.452811479568481
10
-108.36790084838867
20
-15.223753452301025
10
-108.40000152587891
20
-15.999999046325684
10
-108.40000152587891
20
-20.676546096801758
10
-108.39519500732422
20
-20.792477130889893
10
-108.38080406188965
20
-20.907614231109619
10
-108.35692405700684
20
-21.021163463592529
10
-108.3237361907959
20
-21.13234281539917
10
-108.28144073486328
20
-21.240391731262207
10
-108.2303524017334
20
-21.344568729400635
10
-108.17080497741699
20
-21.444156169891357
10
-108.10320854187012
20
-21.538474559783936
10
-108.0280590057373
20
-21.62686824798584
10
-107.94583320617676
20
-21.708734035491943
10
-107.85711288452148
20
-21.783511638641357
10
-107.76248931884766
20
-21.850688457489014
0
LWPOLYLINE
5
105
100
AcDbEntity
8
0
100
AcDbPolyline
90
108
70
1
43
0.0
10
-61.755380630493164
20
-19.533188343048096
10
-61.721005439758301
20
-19.646179676055908
10
-61.67722225189209
20
-19.755867719650269
10
-61.624360084533691
20
-19.861478805541992
10
-61.56278133392334
20
-19.962255954742432
10
-61.492919921875
20
-20.057487487792969
10
-61.415290832519531
20
-20.146489143371582
10
-61.330432891845703
20
-20.228631496429443
10
-61.238951683044434
20
-20.303332805633545
10
-61.141500473022461
20
-20.370054244995117
10
-61.038775444030762
20
-20.42832612991333
10
-60.931506156921387
20
-20.477731227874756
10
-60.820446014404297
20
-20.517919063568115
10
-60.706400871276855
20
-20.548605918884277
10
-60.590167045593262
20
-20.569570064544678
10
-60.472588539123535
20
-20.580663681030273
10
-59.087233543395996
20
-20.685393810272217
10
-57.708353996276855
20
-20.855321884155273
10
-56.339015960693359
20
-21.090075969696045
10
-54.98227596282959
20
-21.389129161834717
10
-53.641142845153809
20
-21.751818656921387
10
-52.318596839904785
20
-22.177333831787109
10
-51.017584800720215
20
-22.664730548858643
10
-49.741001129150391
20
-23.212926387786865
10
-48.491683006286621
20
-23.820700645446777
10
-47.27241039276123
20
-24.486701488494873
10
-46.085896492004395
20
-25.209445953369141
10
-44.934773445129395
20
-25.987329483032227
10
-43.821606636047363
20
-26.818621158599854
10
-42.748870849609375
20
-27.701470851898193
10
-41.718955039978027
20
-28.63391637802124
10
-40.734143257141113
20
-29.613883495330811
10
-39.79663610458374
20
-30.639193058013916
10
-38.908505439758301
20
-31.707563400268555
10
-38.071739673614502
20
-32.816617488861084
10
-37.997226715087891
20
-32.91146993637085
10
-37.9148268699646
20
-32.999553680419922
10
-37.825150489807129
20
-33.080222606658936
10
-37.728862762451172
20
-33.152871131896973
10
-37.626678943634033
20
-33.216960430145264
10
-37.519359588623047
20
-33.272018432617188
10
-37.407701015472412
20
-33.317630290985107
10
-37.292525768280029
20
-33.353466987609863
10
-37.174699306488037
20
-33.379254341125488
10
-37.055084705352783
20
-33.394801616668701
10
-36.934578418731689
20
-33.399999141693115
10
-25
20
-33.399999141693115
10
-24.877984523773193
20
-33.394672870635986
10
-24.756894111633301
20
-33.378732204437256
10
-24.637653827667236
20
-33.352296352386475
10
-24.521172046661377
20
-33.31557035446167
10
-24.40833568572998
20
-33.2688307762146
10
-24.300000667572021
20
-33.212432861328125
10
-24.196994304656982
20
-33.146812915802002
10
-24.100098609924316
20
-33.072464466094971
10
-24.010052680969238
20
-32.98994779586792
10
-23.927538394927979
20
-32.899901866912842
10
-23.853187561035156
20
-32.803006172180176
10
-23.787565231323242
20
-32.699997425079346
10
-23.731169700622559
20
-32.591664791107178
10
-23.684432506561279
20
-32.478828430175781
10
-23.647706508636475
20
-32.362346649169922
10
-23.621270656585693
20
-32.243106365203857
10
-23.605327606201172
20
-32.122018337249756
10
-23.600001335144043
20
-32.000000476837158
10
-23.600001335144043
20
-17.000000476837158
10
-23.63206148147583
20
-16.184024810791016
10
-23.728041648864746
20
-15.373080968856812
10
-23.887355327606201
20
-14.572166204452515
10
-24.109013080596924
20
-13.7862229347229
10
-24.391653537750244
20
-13.02009105682373
10
-24.733531475067139
20
-12.278498411178589
10
-25.132544040679932
20
-11.566013097763062
10
-25.586223602294922
20
-10.887035131454468
10
-26.09177827835083
20
-10.245741605758667
10
-26.646089553833008
20
-9.6460878849029541
10
-27.24574089050293
20
-9.0917760133743286
10
-27.88703441619873
20
-8.5862249135971069
10
-28.566014766693115
20
-8.1325399875640869
10
-29.278500080108643
20
-7.7335315942764282
10
-30.020091533660889
20
-7.3916500806808472
10
-30.78622579574585
20
-7.1090126037597656
10
-31.572167873382568
20
-6.8873500823974609
10
-32.373082637786865
20
-6.7280423641204834
10
-33.184025287628174
20
-6.6320604085922241
10
-34.000000953674316
20
-6.600000262260437
10
-60.400004386901855
20
-6.600000262260437
10
-60.522017478942871
20
-6.6053271293640137
10
-60.643110275268555
20
-6.6212677955627441
10
-60.762348175048828
20
-6.6477024555206299
10
-60.878829956054688
20
-6.6844302415847778
10
-60.991663932800293
20
-6.7311674356460571
10
-61.100001335144043
20
-6.787564754486084
10
-61.203007698059082
20
-6.8531858921051025
10
-61.299905776977539
20
-6.9275391101837158
10
-61.389951705932617
20
-7.0100504159927368
10
-61.472463607788086
20
-7.1000975370407104
10
-61.546812057495117
20
-7.1969932317733765
10
-61.612439155578613
20
-7.300000786781311
10
-61.668829917907715
20
-7.4083322286605835
10
-61.715574264526367
20
-7.521170973777771
10
-61.75229549407959
20
-7.6376533508300781
10
-61.778731346130371
20
-7.7568930387496948
10
-61.794676780700684
20
-7.8779792785644531
10
-61.800003051757812
20
-7.9999977350234985
10
-61.800003051757812
20
-19.182544946670532
10
-61.79502010345459
20
-19.300543069839478
10
-61.780109405517578
20
-19.417704343795776
0
ENDSEC
0
SECTION
2
OBJECTS
0
DICTIONARY
5
C
100
AcDbDictionary
3
ACAD_GROUP
350
D
3
ACAD_MLINESTYLE
350
17
0
DICTIONARY
5
D
100
AcDbDictionary
0
DICTIONARY
5
1A
330
C
100
AcDbDictionary
0
DICTIONARY
5
17
100
AcDbDictionary
0
ENDSEC
0
EOF
